<?xml version="1.0" encoding="UTF-8"?>
<svg version="1.1" xmlns="http://www.w3.org/2000/svg" width="180" height="180">
<path d="M0 0 C59.4 0 118.8 0 180 0 C180 59.4 180 118.8 180 180 C120.6 180 61.2 180 0 180 C0 120.6 0 61.2 0 0 Z " fill="#FBFDFD" transform="translate(0,0)"/>
<path d="M0 0 C59.4 0 118.8 0 180 0 C180 59.4 180 118.8 180 180 C120.6 180 61.2 180 0 180 C0 120.6 0 61.2 0 0 Z M4 56 C3.9175 70.746875 3.835 85.49375 3.75 100.6875 C3.71358398 105.34061279 3.67716797 109.99372559 3.63964844 114.7878418 C3.62626915 118.96573047 3.62626915 118.96573047 3.6182251 123.14363098 C3.61209031 125.00178357 3.59803741 126.85992041 3.57769775 128.7179718 C3.54839851 131.53581322 3.54437647 134.35268328 3.54589844 137.1706543 C3.531506 137.99581637 3.51711357 138.82097845 3.502285 139.67114544 C3.5310318 143.64966569 3.71177211 145.54732694 5.90338135 148.98933411 C9.37615954 152.31974265 11.55214119 152.1299213 16.28108215 152.14717102 C17.25840625 152.15268605 17.25840625 152.15268605 18.25547427 152.1583125 C20.44872575 152.16936589 22.64192989 152.17319595 24.83520508 152.17700195 C26.40372367 152.18326533 27.97224076 152.18991202 29.54075623 152.19691467 C33.80942725 152.21433545 38.07808706 152.22487926 42.34678483 152.2331202 C45.0125862 152.23826784 47.67838407 152.24434366 50.34418297 152.25063133 C58.68159379 152.269686 67.01899574 152.28391682 75.35642415 152.2922433 C84.98671408 152.30201923 94.61677436 152.3283468 104.24698335 152.36874419 C111.6865327 152.39888324 119.12601614 152.41371005 126.56562537 152.41702431 C131.01089798 152.41937724 135.45592535 152.42836903 139.90113258 152.45348549 C144.08314735 152.47673283 148.26475482 152.48101306 152.4468174 152.47072411 C153.98149977 152.47022782 155.51620196 152.47657549 157.05082321 152.49028015 C159.1470273 152.50795209 161.2417622 152.50091821 163.33796692 152.48774719 C165.09699955 152.49132972 165.09699955 152.49132972 166.89156818 152.49498463 C170.6501522 151.89647019 172.30301825 150.63212829 175 148 C176.63665992 144.72668016 176.1290053 141.10771265 176.11352539 137.51123047 C176.11364593 136.61889269 176.11376646 135.72655491 176.11389065 134.80717659 C176.11314256 131.91048845 176.10551901 129.01386417 176.09765625 126.1171875 C176.09618651 124.33211295 176.095166 122.54703796 176.09460449 120.76196289 C176.08935532 114.1329687 176.07539419 107.50398373 176.0625 100.875 C176.041875 86.06625 176.02125 71.2575 176 56 C119.24 56 62.48 56 4 56 Z " fill="#021E3C" transform="translate(0,0)"/>
<path d="M0 0 C1.32 1.65 2.64 3.3 4 5 C7.39767521 8.31492654 10.00079603 8.37821212 14.67344666 8.38768005 C15.34303911 8.39306559 16.01263157 8.39845113 16.70251471 8.40399987 C18.9450115 8.41830135 21.18691981 8.41117068 23.42944336 8.40405273 C25.03766861 8.40975519 26.64588981 8.41671897 28.25410461 8.42485046 C32.62189101 8.44281106 36.98947683 8.44160804 41.35728908 8.43590808 C45.00300979 8.43282035 48.64869175 8.43890406 52.29440695 8.44494683 C60.89479034 8.45900003 69.49507442 8.45742422 78.09545898 8.44604492 C86.9694346 8.43456312 95.84310803 8.44863854 104.71704382 8.4754414 C112.33499562 8.49758958 119.9528525 8.50423776 127.57083422 8.49836498 C132.12112288 8.49499205 136.67121781 8.49743268 141.22147942 8.51461601 C145.50040769 8.53006905 149.77888792 8.52614808 154.05779839 8.50731087 C155.62794407 8.50362038 157.19812282 8.50674688 158.76823807 8.51719666 C160.91253319 8.53037795 163.05533872 8.51888701 165.1995697 8.50120544 C166.39915786 8.50099616 167.59874601 8.50078688 168.83468533 8.50057125 C174.44899335 7.6127097 176.68707158 4.41723789 180 0 C180 10.89 180 21.78 180 33 C120.6 33 61.2 33 0 33 C0 22.11 0 11.22 0 0 Z " fill="#FBFCFC" transform="translate(0,147)"/>
<path d="M0 0 C59.4 0 118.8 0 180 0 C180 10.89 180 21.78 180 33 C178.02 30.525 178.02 30.525 176 28 C172.60232479 24.68507346 169.99920397 24.62178788 165.32655334 24.61231995 C164.65696089 24.60693441 163.98736843 24.60154887 163.29748529 24.59600013 C161.0549885 24.58169865 158.81308019 24.58882932 156.57055664 24.59594727 C154.96233139 24.59024481 153.35411019 24.58328103 151.74589539 24.57514954 C147.37810899 24.55718894 143.01052317 24.55839196 138.64271092 24.56409192 C134.99699021 24.56717965 131.35130825 24.56109594 127.70559305 24.55505317 C119.10520966 24.54099997 110.50492558 24.54257578 101.90454102 24.55395508 C93.0305654 24.56543688 84.15689197 24.55136146 75.28295618 24.5245586 C67.66500438 24.50241042 60.0471475 24.49576224 52.42916578 24.50163502 C47.87887712 24.50500795 43.32878219 24.50256732 38.77852058 24.48538399 C34.49959231 24.46993095 30.22111208 24.47385192 25.94220161 24.49268913 C24.37205593 24.49637962 22.80187718 24.49325312 21.23176193 24.48280334 C19.08746681 24.46962205 16.94466128 24.48111299 14.8004303 24.49879456 C13.60084214 24.49900384 12.40125399 24.49921312 11.16531467 24.49942875 C5.55100665 25.3872903 3.31292842 28.58276211 0 33 C0 22.11 0 11.22 0 0 Z " fill="#FBFCFC" transform="translate(0,0)"/>
<path d="M0 0 C4.26919243 4.74354715 5.12513922 7.21797982 5.09765625 13.5390625 C5.09443359 14.84101562 5.09121094 16.14296875 5.08789062 17.484375 C5.07953466 18.86458399 5.07106971 20.24479232 5.0625 21.625 C5.05748501 23.01301926 5.0529221 24.40104022 5.04882812 25.7890625 C5.03700976 29.19275132 5.02053434 32.59635439 5 36 C4.34 35.67 3.68 35.34 3 35 C3 33.35 3 31.7 3 30 C-2.94 30 -8.88 30 -15 30 C-15.33 29.34 -15.66 28.68 -16 28 C-28.87 28 -41.74 28 -55 28 C-54.01 27.505 -54.01 27.505 -53 27 C-53 26.01 -53 25.02 -53 24 C-53.57021252 24.16251975 -54.14042503 24.3250395 -54.72791672 24.49248409 C-57.02196043 25.00490531 -59.00656234 25.12314463 -61.35333252 25.12025452 C-62.21707489 25.12162918 -63.08081726 25.12300385 -63.97073364 25.12442017 C-64.91012787 25.12082489 -65.84952209 25.11722961 -66.81738281 25.11352539 C-67.81283112 25.11367142 -68.80827942 25.11381744 -69.83389282 25.1139679 C-73.12365906 25.11327132 -76.41336865 25.1054908 -79.703125 25.09765625 C-81.98427296 25.09579117 -84.26542132 25.09436769 -86.54656982 25.09336853 C-92.5503856 25.08955048 -98.55417718 25.07972624 -104.5579834 25.06866455 C-110.6844856 25.05843515 -116.81099172 25.05386763 -122.9375 25.04882812 C-134.95834396 25.03810336 -146.97916997 25.02103545 -159 25 C-159 24.67 -159 24.34 -159 24 C-157.16503464 23.99120064 -157.16503464 23.99120064 -155.29299927 23.98222351 C-143.78546589 23.92510331 -132.27812343 23.85239828 -120.77078438 23.76428509 C-114.85420203 23.719486 -108.93769006 23.6802511 -103.02099609 23.65356445 C-97.31504923 23.62762644 -91.60937187 23.58729205 -85.90359116 23.53681374 C-83.72264829 23.52008049 -81.54165874 23.50860662 -79.36066055 23.50238609 C-76.31453188 23.49281499 -73.26910283 23.46484034 -70.22314453 23.43237305 C-68.8593718 23.43452568 -68.8593718 23.43452568 -67.4680481 23.4367218 C-64.71333979 23.43052885 -64.71333979 23.43052885 -61 23 C-60.01 21.515 -60.01 21.515 -59 20 C-59.99 18.515 -59.99 18.515 -61 17 C-61.42379221 13.11523809 -61.61457992 10.89823219 -59.375 7.625 C-56.43721938 5.61493957 -54.5603504 5.07266021 -51 5 C-47.47093933 6.60411848 -46.17227092 7.74159362 -44 11 C-44.26705337 15.8069607 -45.24994544 19.05426955 -48 23 C-45.36 23 -42.72 23 -40 23 C-39.74051093 20.08617835 -39.74051093 20.08617835 -41.0625 18.25 C-42.48964838 14.82484388 -41.94715972 12.53606297 -41 9 C-38.875 6.5 -38.875 6.5 -36 5 C-31.7412375 5.14685388 -29.5576743 5.62821713 -26 8 C-23.65712582 5.32752366 -23.65712582 5.32752366 -23 2 C-20.36 2 -17.72 2 -15 2 C-15.33 2.99 -15.66 3.98 -16 5 C-14.35 4.67 -12.7 4.34 -11 4 C-10.938125 3.38125 -10.87625 2.7625 -10.8125 2.125 C-10 0 -10 0 -7.75 -1.375 C-4.29424178 -2.1603996 -3.03799425 -1.79163764 0 0 Z " fill="#032241" transform="translate(175,26)"/>
<path d="M0 0 C7.59 0 15.18 0 23 0 C23.02255523 7.67536977 23.04091753 15.35072729 23.05181217 23.02612209 C23.05703995 26.58977422 23.06413569 30.15340257 23.07543945 33.71704102 C23.08834176 37.81006097 23.09322906 41.9030558 23.09765625 45.99609375 C23.10281754 47.28148544 23.10797882 48.56687714 23.11329651 49.89122009 C23.11340981 51.66294334 23.11340981 51.66294334 23.11352539 53.47045898 C23.115746 54.51636703 23.11796661 55.56227509 23.12025452 56.63987732 C23 59 23 59 22 60 C14.74 60 7.48 60 0 60 C0 40.2 0 20.4 0 0 Z " fill="#09E7DD" transform="translate(20,74)"/>
<path d="M0 0 C7.26 0 14.52 0 22 0 C22 14.85 22 29.7 22 45 C14.74 45 7.48 45 0 45 C0 30.15 0 15.3 0 0 Z " fill="#0CE4DC" transform="translate(48,89)"/>
<path d="M0 0 C2.475 0.495 2.475 0.495 5 1 C5 1.99 5 2.98 5 4 C5.74765625 4.08507812 6.4953125 4.17015625 7.265625 4.2578125 C10.55642124 5.15102862 11.59822281 6.27572933 13.75 8.875 C14.34296875 9.57367188 14.9359375 10.27234375 15.546875 10.9921875 C18.44324519 14.99416136 18.4820478 19.23872087 18 24 C16.51729366 29.83879532 14.60989024 32.3688186 9.5 35.5625 C5.10009727 38.09244407 0.99125843 38.64833072 -4 38 C-8.56363668 36.43277246 -12.7093953 34.4380466 -15 30 C-15 29.01 -15 28.02 -15 27 C-15.66 27 -16.32 27 -17 27 C-17 25.35 -17 23.7 -17 22 C-14.03 22 -11.06 22 -8 22 C-8 21.01 -8 20.02 -8 19 C-11.3 19 -14.6 19 -18 19 C-18.78757384 13.92452417 -18.78757384 13.92452417 -18 11 C-14.53355407 7.65480835 -10.5465037 5.51550123 -6 4 C-6 3.34 -6 2.68 -6 2 C-4.02 2 -2.04 2 0 2 C0 1.34 0 0.68 0 0 Z " fill="#D7FEFE" transform="translate(142,69)"/>
<path d="M0 0 C7.59 0 15.18 0 23 0 C23.02291088 4.68145711 23.04283732 9.36272102 23.05493164 14.04418945 C23.05997157 15.63794614 23.0668035 17.23169819 23.07543945 18.82543945 C23.08751999 21.11150253 23.09323155 23.39750467 23.09765625 25.68359375 C23.10281754 26.40026718 23.10797882 27.11694061 23.11329651 27.85533142 C23.11349263 29.57063672 23.06192007 31.28581266 23 33 C22 34 22 34 19.86694336 34.11352539 C18.49227905 34.10567017 18.49227905 34.10567017 17.08984375 34.09765625 C16.199021 34.09515869 15.30819824 34.09266113 14.39038086 34.09008789 C13.25093018 34.08098389 12.11147949 34.07187988 10.9375 34.0625 C7.328125 34.041875 3.71875 34.02125 0 34 C0 22.78 0 11.56 0 0 Z " fill="#08E7DD" transform="translate(75,100)"/>
<path d="M0 0 C7.26 0 14.52 0 22 0 C22 6.6 22 13.2 22 20 C14.74 20 7.48 20 0 20 C0 13.4 0 6.8 0 0 Z " fill="#05E9DD" transform="translate(103,114)"/>
<path d="M0 0 C52.8 0 105.6 0 160 0 C159.67 0.66 159.34 1.32 159 2 C156.9375 2.625 156.9375 2.625 155 3 C155 3.99 155 4.98 155 6 C155 6.33 155 6.66 155 7 C153.02 7 151.04 7 149 7 C148.67 6.34 148.34 5.68 148 5 C144.97065509 4.34227572 144.97065509 4.34227572 142 4 C142.33 4.99 142.66 5.98 143 7 C141.68 8.32 140.36 9.64 139 11 C138.01 10.2575 138.01 10.2575 137 9.5 C133.03366759 7.51683379 130.39696738 7.77642539 126 8 C126.33 7.34 126.66 6.68 127 6 C128.65391846 5.60828247 130.32345271 5.27942455 132 5 C132.99 4.67 133.98 4.34 135 4 C130.02452344 1.26513648 125.26467534 2.0122095 119.80444336 2.38256836 C106.89675311 3.09745228 94.05102075 3.03536289 81.12890625 2.87890625 C78.74039747 2.85452038 76.35188304 2.83068157 73.96336365 2.80735779 C67.76084831 2.74535696 61.55843647 2.67606543 55.35601807 2.60510254 C48.99325156 2.53364644 42.63041328 2.46929654 36.26757812 2.40429688 C23.84497317 2.27637212 11.42246612 2.1407227 -1 2 C-0.67 1.34 -0.34 0.68 0 0 Z " fill="#01162D" transform="translate(10,24)"/>
<path d="M0 0 C50.49 0 100.98 0 153 0 C153.33 0.99 153.66 1.98 154 3 C102.85 3 51.7 3 -1 3 C-0.67 2.01 -0.34 1.02 0 0 Z " fill="#01112C" transform="translate(16,153)"/>
<path d="M0 0 C6.49664511 0.70535004 9.64048661 3.33052121 14 8 C16.46691901 12.00874338 16.60022664 16.3895635 16 21 C15.18766297 23.48866258 14.17631702 25.64736596 13 28 C7.495057 25.48742281 3.17004101 22.21029801 0 17 C-1.09779676 11.39690829 -0.52482078 5.64344321 0 0 Z " fill="#06E9DE" transform="translate(144,72)"/>
<path d="M0 0 C13.20776651 -1.64061341 13.20776651 -1.64061341 17.83740234 1.07958984 C21.37248005 3.97136382 24.23033681 7.38535482 27 11 C26 13 26 13 23.4375 14.125 C16.58275942 15.86984306 11.80913385 15.56942924 5.6953125 12.12890625 C3.4351813 10.62388801 2.19477383 9.45982847 1 7 C0.6372749 4.67105473 0.30137289 2.33767618 0 0 Z " fill="#20E1D5" transform="translate(126,92)"/>
<path d="M0 0 C2.4375 1.5625 2.4375 1.5625 4 4 C4.79990863 8.01603612 4.61840725 10.96932124 2.5 14.5 C-1.03067876 16.61840725 -3.98396388 16.79990863 -8 16 C-11.33219018 13.86398066 -11.89315459 12.3672811 -13 8.5625 C-13 5 -13 5 -11.1875 2.125 C-7.34864131 -1.60417702 -5.15505453 -1.15544326 0 0 Z " fill="#D3F5F0" transform="translate(146,32)"/>
<path d="M0 0 C2.5 2.0625 2.5 2.0625 4 5 C4.30194997 8.87250836 3.84879758 11.91353909 1.4375 15 C-2.10596158 16.45372783 -5.23015837 16.67208242 -9 16 C-11.5 14.5 -11.5 14.5 -13 12 C-13.54719708 9.21841484 -13.58180519 6.7778346 -13 4 C-9.08918103 -1.08406466 -6.14710256 -1.48378338 0 0 Z " fill="#D7F3F4" transform="translate(166,32)"/>
<path d="M0 0 C2.5 2.125 2.5 2.125 4 5 C4 8.88582276 3.53567796 11.16434238 1.4375 14.4375 C-1.55675314 16.35689304 -3.57979374 16.64198916 -7.09375 16.4453125 C-9 16 -9 16 -11.5 13.9375 C-13.37276489 10.27000208 -13.59172793 8.06812955 -13 4 C-9.01693752 -1.04521248 -6.191012 -1.49438221 0 0 Z " fill="#E5F5F6" transform="translate(127,32)"/>
<path d="M0 0 C0.66 0 1.32 0 2 0 C2.33 1.65 2.66 3.3 3 5 C-2.75 10 -2.75 10 -5 10 C-5.33 9.34 -5.66 8.68 -6 8 C-6.79183119 8.00184359 -7.58366238 8.00368717 -8.39948845 8.00558662 C-27.64421427 8.04970715 -46.88893004 8.08282802 -66.1336956 8.10362434 C-75.44022307 8.11394795 -84.74671682 8.12802892 -94.05322266 8.15087891 C-102.16239796 8.17077967 -110.27154887 8.18370854 -118.38074791 8.18817699 C-122.67665192 8.19079001 -126.97248609 8.19695408 -131.26836777 8.21146011 C-135.30825875 8.22499176 -139.34805085 8.22923165 -143.38796234 8.22621536 C-144.87390555 8.22676751 -146.35985193 8.23077121 -147.8457756 8.23841095 C-149.86817814 8.24830261 -151.89063323 8.24479103 -153.91305542 8.24050903 C-155.61376348 8.24327441 -155.61376348 8.24327441 -157.34882927 8.24609566 C-160 8 -160 8 -162 6 C-161.19547299 5.99945523 -160.39094599 5.99891047 -159.56203938 5.99834919 C-139.99066698 5.98338519 -120.41953085 5.94095387 -100.84828663 5.86790943 C-91.38377617 5.83324881 -81.91941152 5.80790251 -72.45483398 5.80444336 C-64.20597484 5.80140495 -55.95737529 5.78093118 -47.70861644 5.73947543 C-43.34044216 5.7181324 -38.97263707 5.70555142 -34.60441017 5.71384621 C-30.4928332 5.72137825 -26.38200479 5.7055989 -22.27056503 5.67193985 C-20.76172148 5.66369623 -19.25280364 5.66396891 -17.74396706 5.67340279 C-15.68229542 5.68501699 -13.62308041 5.66592585 -11.56159973 5.63923645 C-10.40843671 5.63647107 -9.25527369 5.63370569 -8.06716633 5.63085651 C-4.10155368 4.81520705 -2.65995622 2.95436326 0 0 Z " fill="#111D33" transform="translate(175,146)"/>
<path d="M0 0 C7.59 0 15.18 0 23 0 C23.02255523 7.67536977 23.04091753 15.35072729 23.05181217 23.02612209 C23.05703995 26.58977422 23.06413569 30.15340257 23.07543945 33.71704102 C23.08834176 37.81006097 23.09322906 41.9030558 23.09765625 45.99609375 C23.10281754 47.28148544 23.10797882 48.56687714 23.11329651 49.89122009 C23.11340981 51.66294334 23.11340981 51.66294334 23.11352539 53.47045898 C23.115746 54.51636703 23.11796661 55.56227509 23.12025452 56.63987732 C23 59 23 59 22 60 C14.74 60 7.48 60 0 60 C0 40.2 0 20.4 0 0 Z M2 1 C1.00506791 3.98479626 0.87333529 5.95068119 0.87060547 9.06640625 C0.86745331 10.09757568 0.86430115 11.12874512 0.86105347 12.19116211 C0.8630777 13.30370361 0.86510193 14.41624512 0.8671875 15.5625 C0.86623077 16.70533447 0.86527405 17.84816895 0.86428833 19.02563477 C0.86360748 21.44319717 0.86545517 23.86076141 0.86962891 26.27832031 C0.87497845 29.98506769 0.86968067 33.6916939 0.86328125 37.3984375 C0.86394205 39.74479193 0.86522325 42.09114629 0.8671875 44.4375 C0.86516327 45.5500415 0.86313904 46.66258301 0.86105347 47.80883789 C0.86420563 48.84000732 0.86735779 49.87117676 0.87060547 50.93359375 C0.87140106 51.84165771 0.87219666 52.74972168 0.87301636 53.68530273 C0.9066915 56.15971887 0.9066915 56.15971887 2 59 C4.95887459 59.08069658 7.9155659 59.14034665 10.875 59.1875 C11.71675781 59.21263672 12.55851562 59.23777344 13.42578125 59.26367188 C14.23144531 59.27333984 15.03710938 59.28300781 15.8671875 59.29296875 C16.61081543 59.3086792 17.35444336 59.32438965 18.12060547 59.34057617 C18.74080566 59.22818604 19.36100586 59.1157959 20 59 C22.1737156 55.73942659 22.25202436 54.81341653 22.25878906 51.04125977 C22.26509338 50.03333878 22.27139771 49.02541779 22.27789307 47.98695374 C22.2738446 46.89942307 22.26979614 45.8118924 22.265625 44.69140625 C22.26753845 43.5731395 22.2694519 42.45487274 22.27142334 41.30271912 C22.27278508 38.9364296 22.2690894 36.57013261 22.26074219 34.20385742 C22.25005279 30.58039557 22.26063293 26.95743066 22.2734375 23.33398438 C22.27211571 21.03645724 22.2695529 18.73893041 22.265625 16.44140625 C22.26967346 15.35589981 22.27372192 14.27039337 22.27789307 13.1519928 C22.27158875 12.14091965 22.26528442 11.1298465 22.25878906 10.08813477 C22.25719788 9.2000563 22.25560669 8.31197784 22.25396729 7.39698792 C22.10112806 4.61811469 22.10112806 4.61811469 20 1 C14.06 1 8.12 1 2 1 Z " fill="#3DD5C8" transform="translate(20,74)"/>
<path d="M0 0 C1.66953641 0.00081715 1.66953641 0.00081715 3.37280083 0.00165081 C4.64820732 -0.00254368 5.92361382 -0.00673817 7.23766899 -0.01105976 C8.65957526 -0.0055754 10.08148078 0.0001076 11.50338554 0.00596905 C12.99494319 0.00489648 14.48650044 0.00295818 15.97805595 0.00021648 C20.04090658 -0.00464493 24.10364789 0.00304455 28.16648531 0.01316953 C32.42713007 0.02195173 36.68777141 0.0201924 40.94842339 0.01980877 C48.11943193 0.02074681 55.29039831 0.02944129 62.46139336 0.04307842 C70.71698075 0.05872161 78.97252168 0.06407944 87.22812283 0.06334287 C96.04373673 0.06266285 104.85933301 0.06963889 113.67494154 0.07878947 C116.19756165 0.08090656 118.72017885 0.08162876 121.24279976 0.08202839 C125.24007124 0.08304605 129.23730491 0.0892563 133.23456383 0.09919453 C134.68881943 0.1020742 136.14307939 0.10335432 137.59733772 0.10276699 C147.57003525 0.10026739 157.45237869 0.52655361 167.39352226 1.24888897 C167.39352226 1.57888897 167.39352226 1.90888897 167.39352226 2.24888897 C150.13413906 3.5695688 132.86545738 3.29540559 115.5718863 3.14835382 C111.3345787 3.11354454 107.09722711 3.08526914 102.85987663 3.05624676 C94.8670875 3.00053743 86.87435342 2.93910665 78.88162345 2.87552541 C69.76893353 2.80332072 60.65620005 2.73763873 51.54345763 2.67245495 C32.82675574 2.53843015 14.11012268 2.39637555 -4.60647774 2.24888897 C-2.60647774 0.24888897 -2.60647774 0.24888897 0 0 Z " fill="#00142E" transform="translate(8.606477737426758,52.75111103057861)"/>
<path d="M0 0 C0.99 0.495 0.99 0.495 2 1 C2.33 29.38 2.66 57.76 3 87 C2.01 87.495 2.01 87.495 1 88 C-0.59231101 84.81537798 -0.12929857 81.37489467 -0.11352539 77.87841797 C-0.11367142 77.03931885 -0.11381744 76.20021973 -0.1139679 75.33569336 C-0.11326968 72.55449869 -0.10548155 69.77337051 -0.09765625 66.9921875 C-0.09579175 65.06690508 -0.094368 63.14162218 -0.09336853 61.21633911 C-0.08954591 56.1429921 -0.07971779 51.06967361 -0.06866455 45.99633789 C-0.05844495 40.82178127 -0.05386973 35.64722005 -0.04882812 30.47265625 C-0.03809531 20.31509162 -0.02102193 10.15754818 0 0 Z " fill="#011E46" transform="translate(0,61)"/>
<path d="M0 0 C0 4.95 0 9.9 0 15 C-4.95 15 -9.9 15 -15 15 C-13.7628399 8.81419952 -11.95372561 5.54669944 -7 1.625 C-4 0 -4 0 0 0 Z " fill="#1FDFD0" transform="translate(140,72)"/>
<path d="M0 0 C0.33 0 0.66 0 1 0 C1 9.9 1 19.8 1 30 C1.66 30 2.32 30 3 30 C2.98839844 28.73542969 2.97679688 27.47085938 2.96484375 26.16796875 C2.95546434 24.50781398 2.9463643 22.84765761 2.9375 21.1875 C2.92912109 20.35412109 2.92074219 19.52074219 2.91210938 18.66210938 C2.90727539 17.45844727 2.90727539 17.45844727 2.90234375 16.23046875 C2.89448853 15.12288208 2.89448853 15.12288208 2.88647461 13.99291992 C3 12 3 12 4 9 C6.64 9.33 9.28 9.66 12 10 C12.33 9.34 12.66 8.68 13 8 C13.55171875 8.16371094 14.1034375 8.32742187 14.671875 8.49609375 C17.26614007 9.05760414 19.59835411 9.09739008 22.25 9.0625 C23.14203125 9.05347656 24.0340625 9.04445313 24.953125 9.03515625 C25.62859375 9.02355469 26.3040625 9.01195313 27 9 C27 9.99 27 10.98 27 12 C19.74 12 12.48 12 5 12 C5 18.6 5 25.2 5 32 C1.17358586 32.76528283 -1.70558653 33.1189632 -5.51953125 33.09765625 C-6.54111328 33.09443359 -7.56269531 33.09121094 -8.61523438 33.08789062 C-9.67033203 33.07951172 -10.72542969 33.07113281 -11.8125 33.0625 C-12.88693359 33.05798828 -13.96136719 33.05347656 -15.06835938 33.04882812 C-17.71229683 33.03707729 -20.35611952 33.02064787 -23 33 C-23 32.67 -23 32.34 -23 32 C-15.74 31.67 -8.48 31.34 -1 31 C-0.67 20.77 -0.34 10.54 0 0 Z " fill="#C3FBF9" transform="translate(98,102)"/>
<path d="M0 0 C1 1 1 1 1.12025452 2.90455627 C1.1169236 4.15365028 1.1169236 4.15365028 1.11352539 5.42797852 C1.11344986 6.36887833 1.11337433 7.30977814 1.11329651 8.27919006 C1.10813522 9.30209641 1.10297394 10.32500275 1.09765625 11.37890625 C1.0962413 12.42070541 1.09482635 13.46250458 1.09336853 14.53587341 C1.0877508 17.87811094 1.0751953 21.22028257 1.0625 24.5625 C1.05748728 26.82226466 1.05292398 29.08203037 1.04882812 31.34179688 C1.03777561 36.89455391 1.02102024 42.44727225 1 48 C0.67 48 0.34 48 0 48 C0 33.15 0 18.3 0 3 C-7.26 3 -14.52 3 -22 3 C-22 17.85 -22 32.7 -22 48 C-22.33 48 -22.66 48 -23 48 C-23 32.49 -23 16.98 -23 1 C-6 0 -6 0 0 0 Z " fill="#A6F4ED" transform="translate(70,86)"/>
<path d="M0 0 C6.49664511 0.70535004 9.64048661 3.33052121 14 8 C16.46691901 12.00874338 16.60022664 16.3895635 16 21 C15.18766297 23.48866258 14.17631702 25.64736596 13 28 C7.495057 25.48742281 3.17004101 22.21029801 0 17 C-1.09779676 11.39690829 -0.52482078 5.64344321 0 0 Z M3 3 C2.01879536 6.05263664 2.01879536 7.94736336 3 11 C2.34 11 1.68 11 1 11 C1 12.32 1 13.64 1 15 C1.66 15 2.32 15 3 15 C3.33 16.65 3.66 18.3 4 20 C5.98 20.66 7.96 21.32 10 22 C10 22.99 10 23.98 10 25 C10.66 25 11.32 25 12 25 C13.01702117 21.9489365 13.16582083 19.75800939 13.1875 16.5625 C13.20876953 15.14130859 13.20876953 15.14130859 13.23046875 13.69140625 C12.99614518 10.95498356 12.39701383 9.33571877 11 7 C10.34 7 9.68 7 9 7 C9 6.34 9 5.68 9 5 C6.18490007 2.7226499 6.18490007 2.7226499 3 3 Z " fill="#27DFD2" transform="translate(144,72)"/>
<path d="M0 0 C0.99 0 1.98 0 3 0 C3.05071337 7.74126386 3.08573928 15.48248486 3.10986328 23.22387695 C3.1199203 25.85735678 3.1335676 28.49082545 3.15087891 31.12426758 C3.1751399 34.909696 3.1864862 38.69497676 3.1953125 42.48046875 C3.20563507 43.65772018 3.21595764 44.83497162 3.22659302 46.04789734 C3.22674408 47.14866104 3.22689514 48.24942474 3.22705078 49.38354492 C3.231492 50.34951096 3.23593323 51.31547699 3.24050903 52.31071472 C2.98174043 55.2041719 2.20596117 57.37111814 1 60 C0.34 59.67 -0.32 59.34 -1 59 C-0.67 39.53 -0.34 20.06 0 0 Z " fill="#CAFEFE" transform="translate(43,74)"/>
<path d="M0 0 C1.98 0 3.96 0 6 0 C4.515 2.475 4.515 2.475 3 5 C4.65 4.34 6.3 3.68 8 3 C8 2.01 8 1.02 8 0 C10.31 0 12.62 0 15 0 C15 1.32 15 2.64 15 4 C15.66 4 16.32 4 17 4 C17 4.66 17 5.32 17 6 C16.01 6.495 16.01 6.495 15 7 C15.33 8.32 15.66 9.64 16 11 C13.69 11 11.38 11 9 11 C8.34 9.68 7.68 8.36 7 7 C5.824375 7.0928125 5.824375 7.0928125 4.625 7.1875 C3.75875 7.125625 2.8925 7.06375 2 7 C0 4 0 4 0 0 Z " fill="#0EE4E0" transform="translate(128,94)"/>
<path d="M0 0 C7.59 0 15.18 0 23 0 C23.02291088 4.68145711 23.04283732 9.36272102 23.05493164 14.04418945 C23.05997157 15.63794614 23.0668035 17.23169819 23.07543945 18.82543945 C23.08751999 21.11150253 23.09323155 23.39750467 23.09765625 25.68359375 C23.10281754 26.40026718 23.10797882 27.11694061 23.11329651 27.85533142 C23.11349263 29.57063672 23.06192007 31.28581266 23 33 C22 34 22 34 19.86694336 34.11352539 C18.49227905 34.10567017 18.49227905 34.10567017 17.08984375 34.09765625 C16.199021 34.09515869 15.30819824 34.09266113 14.39038086 34.09008789 C13.25093018 34.08098389 12.11147949 34.07187988 10.9375 34.0625 C7.328125 34.041875 3.71875 34.02125 0 34 C0 22.78 0 11.56 0 0 Z M1 2 C0.74546619 6.61925388 0.81476959 11.24956857 0.8125 15.875 C0.80025391 17.18082031 0.78800781 18.48664063 0.77539062 19.83203125 C0.77345703 21.08113281 0.77152344 22.33023438 0.76953125 23.6171875 C0.76542236 24.76815918 0.76131348 25.91913086 0.75708008 27.10498047 C0.7816616 30.19594299 0.7816616 30.19594299 3 33 C5.02887311 33.41480107 5.02887311 33.41480107 7.3515625 33.29296875 C8.11807129 33.28547607 8.88458008 33.2779834 9.67431641 33.27026367 C11.13490479 33.22929565 11.13490479 33.22929565 12.625 33.1875 C15.71875 33.125625 18.8125 33.06375 22 33 C22 22.44 22 11.88 22 1 C18.720625 0.979375 15.44125 0.95875 12.0625 0.9375 C11.02746338 0.928396 9.99242676 0.91929199 8.92602539 0.90991211 C8.11641357 0.90741455 7.30680176 0.90491699 6.47265625 0.90234375 C5.64000244 0.89710693 4.80734863 0.89187012 3.94946289 0.88647461 C1.99483202 0.78356708 1.99483202 0.78356708 1 2 Z " fill="#34D3C8" transform="translate(75,100)"/>
<path d="M0 0 C-0.99 1.485 -0.99 1.485 -2 3 C-5.625 3.1875 -5.625 3.1875 -9 3 C-8.67 5.97 -8.34 8.94 -8 12 C-4.16774573 12.08912219 -0.73437848 11.87867729 3 11 C1.125 14.875 1.125 14.875 0 16 C-7.09302326 16.58139535 -7.09302326 16.58139535 -10.4375 14.4375 C-12.53567796 11.16434238 -13 8.88582276 -13 5 C-9.1461353 -1.11302676 -6.86017496 -1.14336249 0 0 Z " fill="#EAEDF2" transform="translate(146,32)"/>
<path d="M0 0 C-0.33 0.99 -0.66 1.98 -1 3 C-3.5625 4.1875 -3.5625 4.1875 -6 5 C-6 7.31 -6 9.62 -6 12 C-3.69 12 -1.38 12 1 12 C0.67 13.32 0.34 14.64 0 16 C-6.22222222 16.47863248 -6.22222222 16.47863248 -9.4375 14.5 C-11.6242481 11.00120304 -11.84266352 8.02330524 -11 4 C-7.54455206 -0.49208232 -5.38953646 -1.27646916 0 0 Z " fill="#E9F5F7" transform="translate(164,32)"/>
<path d="M0 0 C-0.33 0.99 -0.66 1.98 -1 3 C-4.5625 4.1875 -4.5625 4.1875 -8 5 C-8.26218749 8.14624993 -8.24754367 9.61837017 -6.5 12.3125 C-6.005 12.869375 -5.51 13.42625 -5 14 C-5.33 14.66 -5.66 15.32 -6 16 C-8.58148508 15.64393309 -9.82045747 15.16671807 -11.75 13.375 C-13.50854958 10.03375579 -13.46517421 7.72139364 -13 4 C-8.88902962 -1.20722915 -6.32728127 -1.05454688 0 0 Z " fill="#E9F3F6" transform="translate(127,32)"/>
<path d="M0 0 C0.33 0 0.66 0 1 0 C1 12.87 1 25.74 1 39 C1.66 39 2.32 39 3 39 C3 30.09 3 21.18 3 12 C3.33 12 3.66 12 4 12 C4 22.89 4 33.78 4 45 C2.68 45 1.36 45 0 45 C0 30.15 0 15.3 0 0 Z " fill="#CDFEFF" transform="translate(71,89)"/>
<path d="M0 0 C7.26 0 14.52 0 22 0 C22 6.6 22 13.2 22 20 C14.74 20 7.48 20 0 20 C0 13.4 0 6.8 0 0 Z M1 1 C0.95875 3.413125 0.9175 5.82625 0.875 8.3125 C0.85679199 9.06829346 0.83858398 9.82408691 0.81982422 10.6027832 C0.78900527 14.31447871 0.89022442 15.83533664 3 19 C5.95064148 19.2208564 8.68368231 19.28060989 11.625 19.1875 C12.42679688 19.17396484 13.22859375 19.16042969 14.0546875 19.14648438 C16.03674378 19.11109051 18.01845551 19.05728234 20 19 C21.20693821 15.37918537 21.10782079 12.0749281 21.0625 8.3125 C21.041875 5.899375 21.02125 3.48625 21 1 C14.4 1 7.8 1 1 1 Z " fill="#36D3C1" transform="translate(103,114)"/>
<path d="M0 0 C0.43570313 0.37511719 0.87140625 0.75023438 1.3203125 1.13671875 C5.18607599 4.45859777 9.07657648 7.74642927 13 11 C12.01 11.99 11.02 12.98 10 14 C6.54879799 12.56700091 5.01642502 10.85525744 2.75 7.9375 C-1.3140663 3.64851401 -4.85270096 3.21391284 -10.5 3 C-13.00702548 2.94226881 -15.49161276 2.95129345 -18 3 C-18.33 4.32 -18.66 5.64 -19 7 C-19 5.35 -19 3.7 -19 2 C-12.73 2 -6.46 2 0 2 C0 1.34 0 0.68 0 0 Z " fill="#BFF6F2" transform="translate(144,89)"/>
<path d="M0 0 C0.02698422 2.43757413 0.04683099 4.87484915 0.0625 7.3125 C0.07087891 8.00279297 0.07925781 8.69308594 0.08789062 9.40429688 C0.10307906 12.5483025 0.00193327 14.99420019 -1 18 C-5.29 18 -9.58 18 -14 18 C-14 17.01 -14 16.02 -14 15 C-8.555 14.505 -8.555 14.505 -3 14 C-3.33 13.01 -3.66 12.02 -4 11 C-2.5625 7.8125 -2.5625 7.8125 -1 5 C-1.66 5 -2.32 5 -3 5 C-3 4.01 -3 3.02 -3 2 C-5.31 2 -7.62 2 -10 2 C-10 1.67 -10 1.34 -10 1 C-3.375 0 -3.375 0 0 0 Z " fill="#11E4DB" transform="translate(124,115)"/>
<path d="M0 0 C0.66 1.32 1.32 2.64 2 4 C-5.59 4 -13.18 4 -21 4 C-21 3.34 -21 2.68 -21 2 C-16.57317509 0.9609622 -12.21065368 0.68407049 -7.6875 0.4375 C-6.57665039 0.37272461 -6.57665039 0.37272461 -5.44335938 0.30664062 C-3.62908536 0.20129568 -1.8145645 0.10021684 0 0 Z " fill="#D1F9FA" transform="translate(96,96)"/>
<path d="M0 0 C3 0.125 3 0.125 4 1.125 C4.125 4.125 4.125 4.125 4 7.125 C3 8.125 3 8.125 -0.0625 8.1875 C-1.031875 8.166875 -2.00125 8.14625 -3 8.125 C-3.38063221 5.7989143 -3.71269945 3.46444736 -4 1.125 C-3 0.125 -3 0.125 0 0 Z " fill="#3AD5CB" transform="translate(161,35.875)"/>
<path d="M0 0 C2.64 0 5.28 0 8 0 C7.67 1.32 7.34 2.64 7 4 C5.68 4.33 4.36 4.66 3 5 C2.34 7.97 1.68 10.94 1 14 C0.01 14 -0.98 14 -2 14 C-3.35851319 7.70143885 -3.35851319 7.70143885 -1.5625 4.1875 C-1.046875 3.465625 -0.53125 2.74375 0 2 C0 1.34 0 0.68 0 0 Z " fill="#172745" transform="translate(152,28)"/>
<path d="M0 0 C0.99 0.33 1.98 0.66 3 1 C3 1.66 3 2.32 3 3 C5.97 3 8.94 3 12 3 C12.33 4.98 12.66 6.96 13 9 C9.86650268 10.04449911 9.01031744 9.93423645 6 9 C6 7.68 6 6.36 6 5 C4.02 5 2.04 5 0 5 C0 3.35 0 1.7 0 0 Z " fill="#11E3E1" transform="translate(104,115)"/>
<path d="M0 0 C3 0.125 3 0.125 4 1.125 C4.125 4.125 4.125 4.125 4 7.125 C3 8.125 3 8.125 0.5625 8.3125 C-2 8.125 -2 8.125 -4 6.125 C-4.1875 3.5625 -4.1875 3.5625 -4 1.125 C-3 0.125 -3 0.125 0 0 Z " fill="#3CD7C8" transform="translate(122,35.875)"/>
<path d="M0 0 C1.4540625 0.0309375 1.4540625 0.0309375 2.9375 0.0625 C3.5625 2.9375 3.5625 2.9375 3.9375 6.0625 C1.9375 8.0625 1.9375 8.0625 -0.625 8.25 C-3.0625 8.0625 -3.0625 8.0625 -4.0625 7.0625 C-4.1875 4.0625 -4.1875 4.0625 -4.0625 1.0625 C-3.0625 0.0625 -3.0625 0.0625 0 0 Z " fill="#30D5C9" transform="translate(142.0625,35.9375)"/>
<path d="M0 0 C0.33 0.66 0.66 1.32 1 2 C1.99 2 2.98 2 4 2 C4 2.99 4 3.98 4 5 C3.01 5 2.02 5 1 5 C1 4.34 1 3.68 1 3 C-0.1446875 3.2784375 -0.1446875 3.2784375 -1.3125 3.5625 C-4 4 -4 4 -7 3 C-6.67 3.99 -6.34 4.98 -6 6 C-7.98 6.99 -7.98 6.99 -10 8 C-12 5 -12 5 -11.625 2.8125 C-11.41875 2.214375 -11.2125 1.61625 -11 1 C-9.9275 1.020625 -8.855 1.04125 -7.75 1.0625 C-4.85209576 1.0142016 -2.71387859 0.86844115 0 0 Z " fill="#041F3E" transform="translate(159,25)"/>
<path d="M0 0 C0.91120605 0.01047363 1.82241211 0.02094727 2.76123047 0.03173828 C3.74736328 0.03818359 4.73349609 0.04462891 5.74951172 0.05126953 C7.29832031 0.07640625 7.29832031 0.07640625 8.87841797 0.10205078 C9.91869141 0.11107422 10.95896484 0.12009766 12.03076172 0.12939453 C14.60520889 0.15301331 17.17920009 0.18594929 19.75341797 0.22705078 C19.75341797 0.88705078 19.75341797 1.54705078 19.75341797 2.22705078 C18.53525391 2.27603516 17.31708984 2.32501953 16.06201172 2.37548828 C14.4382936 2.45057351 12.81459671 2.52611881 11.19091797 2.60205078 C9.99112305 2.64845703 9.99112305 2.64845703 8.76708984 2.69580078 C3.78918714 2.93961642 -0.51102852 3.66336466 -5.24658203 5.22705078 C-3.6263991 0.36650197 -3.6263991 0.36650197 0 0 Z " fill="#DFFEFE" transform="translate(22.24658203125,133.77294921875)"/>
<path d="M0 0 C5.28 0 10.56 0 16 0 C16.33 0.66 16.66 1.32 17 2 C14.69 2 12.38 2 10 2 C10.33 2.99 10.66 3.98 11 5 C10.34 5.66 9.68 6.32 9 7 C7.68 7 6.36 7 5 7 C5.66 5.68 6.32 4.36 7 3 C5.35 2.67 3.7 2.34 2 2 C2 2.66 2 3.32 2 4 C1.34 4 0.68 4 0 4 C0 2.68 0 1.36 0 0 Z " fill="#15E0D1" transform="translate(126,92)"/>
<path d="M0 0 C0.66 0 1.32 0 2 0 C2 0.66 2 1.32 2 2 C2.66 2 3.32 2 4 2 C4 1.34 4 0.68 4 0 C7.3 0 10.6 0 14 0 C14 0.99 14 1.98 14 3 C11.03 3 8.06 3 5 3 C5 4.65 5 6.3 5 8 C3 8 3 8 1.375 6.8125 C-0.42149467 4.44439338 -0.23521845 2.90102749 0 0 Z " fill="#EBFDFC" transform="translate(120,88)"/>
<path d="M0 0 C0.66 0.99 1.32 1.98 2 3 C2.66 2.67 3.32 2.34 4 2 C4.33 4.31 4.66 6.62 5 9 C-0.28 8.67 -5.56 8.34 -11 8 C-11 7.67 -11 7.34 -11 7 C-9.1128125 6.6596875 -9.1128125 6.6596875 -7.1875 6.3125 C-3.82648432 5.49752806 -3.19641677 5.257797 -1 2.375 C-0.67 1.59125 -0.34 0.8075 0 0 Z " fill="#102841" transform="translate(170,41)"/>
<path d="M0 0 C0.391875 0.639375 0.78375 1.27875 1.1875 1.9375 C3.41787342 4.47551113 4.76382216 4.41914757 8 5 C8.99 6.485 8.99 6.485 10 8 C12.88595946 8.58481121 12.88595946 8.58481121 16.125 8.6875 C17.22070312 8.75324219 18.31640625 8.81898437 19.4453125 8.88671875 C20.28835937 8.92410156 21.13140625 8.96148437 22 9 C18.25996506 11.49335663 15.32982594 11.63175396 11 11 C6.4360753 9.42455268 2.29298088 7.44265045 0 3 C0 2.01 0 1.02 0 0 Z " fill="#34D6CA" transform="translate(127,96)"/>
<path d="M0 0 C0.8353125 0.556875 0.8353125 0.556875 1.6875 1.125 C0.9759375 1.74375 0.9759375 1.74375 0.25 2.375 C-1.46526627 4.01578817 -1.46526627 4.01578817 -1.8125 6.25 C-1.9775 6.86875 -2.1425 7.4875 -2.3125 8.125 C-3.3025 8.455 -4.2925 8.785 -5.3125 9.125 C-7.5 7.6875 -7.5 7.6875 -9.3125 6.125 C-8.37795424 2.89656918 -7.86573559 1.45985312 -4.9375 -0.3125 C-2.3125 -0.875 -2.3125 -0.875 0 0 Z " fill="#0F2740" transform="translate(172.3125,24.875)"/>
<path d="M0 0 C7.26 0 14.52 0 22 0 C19.34287748 2.65712252 17.76390038 2.35163234 14.0625 2.5625 C10.75529052 2.75940555 8.15115836 2.94961388 5 4 C4.67 3.34 4.34 2.68 4 2 C2.68 1.34 1.36 0.68 0 0 Z " fill="#D8FEFE" transform="translate(103,134)"/>
<path d="M0 0 C6.93 0 13.86 0 21 0 C21 0.33 21 0.66 21 1 C14.4 1 7.8 1 1 1 C1.144375 3.413125 1.28875 5.82625 1.4375 8.3125 C1.50215454 9.44619019 1.50215454 9.44619019 1.56811523 10.6027832 C1.75835191 13.60594873 2.04400348 16.13201045 3 19 C2.01 19 1.02 19 0 19 C0 12.73 0 6.46 0 0 Z " fill="#21D8C7" transform="translate(103,114)"/>
<path d="M0 0 C0.66 0 1.32 0 2 0 C2.33 6.27 2.66 12.54 3 19 C2.01 19.33 1.02 19.66 0 20 C0 13.4 0 6.8 0 0 Z " fill="#C2FDFB" transform="translate(125,114)"/>
<path d="M0 0 C1.25425781 0.00902344 2.50851563 0.01804688 3.80078125 0.02734375 C4.75339844 0.03894531 5.70601562 0.05054688 6.6875 0.0625 C6.3575 1.0525 6.0275 2.0425 5.6875 3.0625 C-0.2525 3.0625 -6.1925 3.0625 -12.3125 3.0625 C-12.3125 2.4025 -12.3125 1.7425 -12.3125 1.0625 C-8.15623632 0.05323521 -4.26884906 -0.03989579 0 0 Z " fill="#0DE9D4" transform="translate(34.3125,129.9375)"/>
<path d="M0 0 C3.11954738 0.33724836 4.6209965 0.6209965 6.875 2.875 C7.24625 3.57625 7.6175 4.2775 8 5 C7.67 5.99 7.34 6.98 7 8 C4.69 7.01 2.38 6.02 0 5 C-0.33 5.66 -0.66 6.32 -1 7 C-1.33 5.35 -1.66 3.7 -2 2 C-1.34 2 -0.68 2 0 2 C0 1.34 0 0.68 0 0 Z " fill="#081A33" transform="translate(171,26)"/>
<path d="M0 0 C0.33 0.66 0.66 1.32 1 2 C-0.25 3.5 -0.25 3.5 -2 5 C-3.32 5 -4.64 5 -6 5 C-6 5.99 -6 6.98 -6 8 C-6.66 8 -7.32 8 -8 8 C-8 7.01 -8 6.02 -8 5 C-10.97 4.505 -10.97 4.505 -14 4 C-14 3.67 -14 3.34 -14 3 C-13.24074219 2.86722656 -12.48148438 2.73445313 -11.69921875 2.59765625 C-10.70535156 2.42105469 -9.71148437 2.24445313 -8.6875 2.0625 C-7.70136719 1.88847656 -6.71523437 1.71445313 -5.69921875 1.53515625 C-2.91810787 1.04253153 -2.91810787 1.04253153 0 0 Z " fill="#DBFCFD" transform="translate(152,104)"/>
<path d="M0 0 C0.66 0 1.32 0 2 0 C2.33 5.94 2.66 11.88 3 18 C2.01 17.67 1.02 17.34 0 17 C0 11.39 0 5.78 0 0 Z " fill="#F7FBFC" transform="translate(141,73)"/>
<path d="M0 0 C5.94 0 11.88 0 18 0 C18 0.66 18 1.32 18 2 C12.06 2.33 6.12 2.66 0 3 C0 2.01 0 1.02 0 0 Z " fill="#0EE4D0" transform="translate(22,75)"/>
<path d="M0 0 C0.33 0 0.66 0 1 0 C2.20546827 5.08018772 2.20546827 5.08018772 2 8 C-1.28032437 11.85438113 -2.91485899 12.77247043 -7.875 13.8125 C-9.421875 13.9053125 -9.421875 13.9053125 -11 14 C-11 13.34 -11 12.68 -11 12 C-9.3603125 11.38125 -9.3603125 11.38125 -7.6875 10.75 C-4.47293162 9.36026741 -2.68351755 8.1799776 -1 5 C-0.28566879 2.35065178 -0.28566879 2.35065178 0 0 Z " fill="#061A33" transform="translate(151,37)"/>
<path d="M0 0 C0.33 0 0.66 0 1 0 C1.3125 2.1875 1.3125 2.1875 1 5 C-1.8895236 8.54998613 -4.54795238 10.79674389 -9 12 C-9.66 11.67 -10.32 11.34 -11 11 C-11 10.34 -11 9.68 -11 9 C-9.39125 8.443125 -9.39125 8.443125 -7.75 7.875 C-3.74156205 6.1953509 -2.16900586 3.7540486 0 0 Z " fill="#EDF3F7" transform="translate(179,147)"/>
<path d="M0 0 C0.33 0.66 0.66 1.32 1 2 C1.66 2.33 2.32 2.66 3 3 C3 4.98 3 6.96 3 9 C1.35 9.66 -0.3 10.32 -2 11 C-1.85892253 9.54119891 -1.71197585 8.08296449 -1.5625 6.625 C-1.48128906 5.81289062 -1.40007812 5.00078125 -1.31640625 4.1640625 C-1 2 -1 2 0 0 Z " fill="#12E2DF" transform="translate(152,77)"/>
<path d="M0 0 C2.97 0.495 2.97 0.495 6 1 C4.68 1.33 3.36 1.66 2 2 C1.67 6.29 1.34 10.58 1 15 C1.66 15 2.32 15 3 15 C3.33 16.65 3.66 18.3 4 20 C2.015625 19.04296875 2.015625 19.04296875 0 17 C-0.52039056 14.09705206 -0.37530743 11.24999543 -0.25 8.3125 C-0.23195312 7.51521484 -0.21390625 6.71792969 -0.1953125 5.89648438 C-0.14822247 3.93047551 -0.07647899 1.96508506 0 0 Z " fill="#42DBD1" transform="translate(144,72)"/>
<path d="M0 0 C-1.875 3.875 -1.875 3.875 -3 5 C-5.67058851 5.14115161 -8.32432238 5.04247107 -11 5 C-11 4.34 -11 3.68 -11 3 C-9.73160474 2.49384702 -8.46016898 1.99530901 -7.1875 1.5 C-6.12595703 1.08234375 -6.12595703 1.08234375 -5.04296875 0.65625 C-3 0 -3 0 0 0 Z " fill="#F4F7F9" transform="translate(149,43)"/>
<path d="M0 0 C1.98 0 3.96 0 6 0 C5.67 1.65 5.34 3.3 5 5 C2.69 5 0.38 5 -2 5 C-1.34 3.35 -0.68 1.7 0 0 Z " fill="#14E0DC" transform="translate(130,78)"/>
<path d="M0 0 C1.65 0 3.3 0 5 0 C3.68 0.33 2.36 0.66 1 1 C1 1.66 1 2.32 1 3 C2.65 2.67 4.3 2.34 6 2 C5.67 3.32 5.34 4.64 5 6 C2.36 6 -0.28 6 -3 6 C-2.67 4.68 -2.34 3.36 -2 2 C-1.34 2 -0.68 2 0 2 C0 1.34 0 0.68 0 0 Z " fill="#122D4C" transform="translate(139,48)"/>
<path d="M0 0 C0.66 0.33 1.32 0.66 2 1 C0.515 4.465 0.515 4.465 -1 8 C3.95 8 8.9 8 14 8 C14 8.33 14 8.66 14 9 C8.72 9 3.44 9 -2 9 C-2 6.36 -2 3.72 -2 1 C-1.34 0.67 -0.68 0.34 0 0 Z " fill="#B0FAF8" transform="translate(126,79)"/>
<path d="M0 0 C1.70840281 1.63412443 2.93453047 2.86906094 4 5 C6.01669827 6.13350534 6.01669827 6.13350534 8 7 C7.67 7.99 7.34 8.98 7 10 C4.33246269 9.63206382 3.18001672 9.18001672 1.25 7.25 C-0.21079991 4.62056017 -0.24687966 2.9625559 0 0 Z " fill="#F1F6FB" transform="translate(114,38)"/>
<path d="M0 0 C0.5775 0.763125 1.155 1.52625 1.75 2.3125 C3.71703093 4.66200917 5.48476744 6.29323505 8 8 C7.67 8.66 7.34 9.32 7 10 C5.68 10 4.36 10 3 10 C3 9.01 3 8.02 3 7 C2.01 6.67 1.02 6.34 0 6 C0 4.02 0 2.04 0 0 Z " fill="#E7EDF2" transform="translate(0,147)"/>
<path d="M0 0 C4.29 0.33 8.58 0.66 13 1 C13 1.66 13 2.32 13 3 C8.71 3 4.42 3 0 3 C0 2.01 0 1.02 0 0 Z " fill="#19E3CF" transform="translate(110,130)"/>
<path d="M0 0 C2.6015625 -0.29296875 2.6015625 -0.29296875 5.625 -0.1875 C7.12933594 -0.14689453 7.12933594 -0.14689453 8.6640625 -0.10546875 C9.43492188 -0.07066406 10.20578125 -0.03585938 11 0 C11 0.66 11 1.32 11 2 C10.01 2 9.02 2 8 2 C8 2.66 8 3.32 8 4 C4.7 3.67 1.4 3.34 -2 3 C-1.34 2.01 -0.68 1.02 0 0 Z " fill="#172A43" transform="translate(116,47)"/>
<path d="M0 0 C0.845625 0.144375 1.69125 0.28875 2.5625 0.4375 C6.03593149 1.0058797 9.51445662 1.51202393 13 2 C9.05881468 4.62745688 6.74927353 4.31098196 2.1875 3.5 C1.1046875 3.2525 1.1046875 3.2525 0 3 C0 2.01 0 1.02 0 0 Z " fill="#021633" transform="translate(153,47)"/>
<path d="M0 0 C2.475 0.495 2.475 0.495 5 1 C5 2.32 5 3.64 5 5 C3.35 5.33 1.7 5.66 0 6 C0 4.02 0 2.04 0 0 Z " fill="#0CE1E3" transform="translate(120,37)"/>
<path d="M0 0 C1.52519276 0.08937803 3.04681929 0.24537146 4.5625 0.4375 C5.38878906 0.53933594 6.21507812 0.64117188 7.06640625 0.74609375 C7.70449219 0.82988281 8.34257812 0.91367187 9 1 C8.67 1.66 8.34 2.32 8 3 C6.00045254 3.04254356 3.99958364 3.04080783 2 3 C1.67 2.67 1.34 2.34 1 2 C0.01 3.485 0.01 3.485 -1 5 C-1.66 5 -2.32 5 -3 5 C-1.125 1.125 -1.125 1.125 0 0 Z " fill="#061933" transform="translate(5,26)"/>
<path d="M0 0 C2.97 0 5.94 0 9 0 C9 0.99 9 1.98 9 3 C5.625 3.1875 5.625 3.1875 2 3 C1.34 2.01 0.68 1.02 0 0 Z " fill="#02ECDE" transform="translate(135,102)"/>
<path d="M0 0 C2.475 0.495 2.475 0.495 5 1 C5 1.99 5 2.98 5 4 C4.34 4 3.68 4 3 4 C3 4.66 3 5.32 3 6 C2.01 5.67 1.02 5.34 0 5 C0 3.35 0 1.7 0 0 Z " fill="#0DE5DF" transform="translate(140,37)"/>
<path d="M0 0 C1.32 0.33 2.64 0.66 4 1 C4.66 0.67 5.32 0.34 6 0 C5.34 2.97 4.68 5.94 4 9 C3.34 9 2.68 9 2 9 C1.34 6.03 0.68 3.06 0 0 Z " fill="#040F2A" transform="translate(129,33)"/>
<path d="M0 0 C1.32 0 2.64 0 4 0 C4 1.98 4 3.96 4 6 C2.68 5.67 1.36 5.34 0 5 C0 3.35 0 1.7 0 0 Z " fill="#06E8E5" transform="translate(159,37)"/>
<path d="M0 0 C2 3 2 3 1.875 5.0625 C0.7413007 7.57283417 -0.48618938 8.02691202 -3 9 C-3.26218749 5.85375007 -3.24754367 4.38162983 -1.5 1.6875 C-1.005 1.130625 -0.51 0.57375 0 0 Z " fill="#011533" transform="translate(173,32)"/>
<path d="M0 0 C1.98 0.66 3.96 1.32 6 2 C6 2.99 6 3.98 6 5 C6.99 5.33 7.98 5.66 9 6 C9 6.66 9 7.32 9 8 C4.7257442 6.4169423 2.73468206 3.49431596 0 0 Z " fill="#2ED9D4" transform="translate(148,92)"/>
<path d="M0 0 C2.64 0 5.28 0 8 0 C5.63707344 2.52588702 4.33537489 3.88820837 1 5 C0.67 3.35 0.34 1.7 0 0 Z " fill="#DDFBFC" transform="translate(128,72)"/>
<path d="M0 0 C0.33 0 0.66 0 1 0 C0.7357513 5.37305699 0.7357513 5.37305699 0 8 C-2.5625 10 -2.5625 10 -5 11 C-4.67 9.68 -4.34 8.36 -4 7 C-3.34 7 -2.68 7 -2 7 C-2 6.01 -2 5.02 -2 4 C-1.34 4 -0.68 4 0 4 C0 2.68 0 1.36 0 0 Z " fill="#DEE0E9" transform="translate(169,37)"/>
<path d="M0 0 C2.475 0.99 2.475 0.99 5 2 C5 3.65 5 5.3 5 7 C3.0625 6.3125 3.0625 6.3125 1 5 C0.25 2.375 0.25 2.375 0 0 Z " fill="#EDF7F8" transform="translate(5,144)"/>
<path d="M0 0 C0.144375 1.11375 0.28875 2.2275 0.4375 3.375 C0.78372035 6.82142047 0.78372035 6.82142047 2 9 C1.01 8.67 0.02 8.34 -1 8 C-1 7.34 -1 6.68 -1 6 C-1.66 5.67 -2.32 5.34 -3 5 C-3.625 2.9375 -3.625 2.9375 -4 1 C-1 0 -1 0 0 0 Z " fill="#D5F5EF" transform="translate(118,35)"/>
<path d="M0 0 C0.66 0 1.32 0 2 0 C2.33 1.65 2.66 3.3 3 5 C2.01 5.66 1.02 6.32 0 7 C-1.125 2.25 -1.125 2.25 0 0 Z " fill="#121528" transform="translate(175,146)"/>
<path d="M0 0 C0.66 0.33 1.32 0.66 2 1 C2.59355614 3.64860427 2.74209269 6.29197322 3 9 C2.01 8.67 1.02 8.34 0 8 C-0.38063221 5.6739143 -0.71269945 3.33944736 -1 1 C-0.67 0.67 -0.34 0.34 0 0 Z " fill="#E1FDF8" transform="translate(155,34)"/>
<path d="M0 0 C0 1.65 0 3.3 0 5 C-2.31 4.67 -4.62 4.34 -7 4 C-7 3.34 -7 2.68 -7 2 C-1.125 0 -1.125 0 0 0 Z " fill="#0AE4CB" transform="translate(139,73)"/>
<path d="M0 0 C0.33 0 0.66 0 1 0 C1.33 2.64 1.66 5.28 2 8 C0.02 8.99 0.02 8.99 -2 10 C-1.34 6.7 -0.68 3.4 0 0 Z " fill="#040D29" transform="translate(151,37)"/>
<path d="M0 0 C1.15941038 3.47823115 0.70820884 5.45895578 0 9 C-0.33 9 -0.66 9 -1 9 C-1.33 7.35 -1.66 5.7 -2 4 C-3.65 3.67 -5.3 3.34 -7 3 C-7 2.67 -7 2.34 -7 2 C-4.69 1.34 -2.38 0.68 0 0 Z " fill="#C2F1F0" transform="translate(127,33)"/>
<path d="M0 0 C1.02104551 0.97850195 2.0206121 1.97980427 3 3 C3 3.33 3 3.66 3 4 C0.36 4 -2.28 4 -5 4 C-4.67 3.34 -4.34 2.68 -4 2 C-2.68 2 -1.36 2 0 2 C0 1.34 0 0.68 0 0 Z " fill="#01EBE8" transform="translate(119,126)"/>
<path d="M0 0 C1.65 1.32 3.3 2.64 5 4 C3.35 4.66 1.7 5.32 0 6 C-0.66 5.01 -1.32 4.02 -2 3 C-1.34 3 -0.68 3 0 3 C0 2.01 0 1.02 0 0 Z " fill="#C9FBFD" transform="translate(152,97)"/>
</svg>
